<?xml version="1.0" standalone="no"?>
<!DOCTYPE svg PUBLIC "-//W3C//DTD SVG 20010904//EN"
 "http://www.w3.org/TR/2001/REC-SVG-20010904/DTD/svg10.dtd">
<svg version="1.0" xmlns="http://www.w3.org/2000/svg"
 width="260.000000pt" height="260.000000pt" viewBox="0 0 260.000000 260.000000"
 preserveAspectRatio="xMidYMid meet">
<metadata>
Created by potrace 1.11, written by Peter Selinger 2001-2013
</metadata>
<g transform="translate(0.000000,260.000000) scale(0.100000,-0.100000)"
fill="#000000" stroke="none">
<path d="M1115 2549 c-280 -42 -438 -101 -618 -231 -266 -192 -395 -391 -466
-722 -31 -141 -36 -433 -11 -548 28 -124 56 -203 109 -308 102 -200 147 -264
247 -349 36 -31 187 -164 194 -171 3 -3 30 -23 60 -45 75 -53 195 -107 315
-141 97 -28 107 -29 320 -29 454 0 567 32 855 242 47 34 108 88 137 120 28 32
65 74 83 93 61 67 140 212 140 255 0 7 9 32 19 56 19 42 32 91 46 169 14 78 8
354 -10 435 -36 164 -99 319 -212 518 -43 76 -43 78 -26 102 10 13 34 29 53
36 92 29 169 61 183 77 22 24 29 72 12 88 -8 8 -11 26 -9 43 3 18 -2 40 -12
56 -14 22 -15 25 -1 25 20 0 27 12 31 55 2 21 -2 39 -10 46 -17 14 -84 5 -95
-13 -6 -10 -11 -10 -20 -1 -8 8 -19 8 -41 1 -16 -6 -50 -8 -74 -5 -41 4 -46 2
-55 -20 -5 -13 -9 -36 -9 -51 0 -24 -10 -31 -84 -64 -46 -21 -93 -38 -105 -38
-14 0 -47 23 -84 59 -80 76 -197 146 -339 205 -119 48 -381 76 -523 55z"/>
</g>
</svg>
