<?xml version="1.0" standalone="no"?>
<!DOCTYPE svg PUBLIC "-//W3C//DTD SVG 20010904//EN"
 "http://www.w3.org/TR/2001/REC-SVG-20010904/DTD/svg10.dtd">
<svg version="1.0" xmlns="http://www.w3.org/2000/svg"
 width="260.000000pt" height="260.000000pt" viewBox="0 0 260.000000 260.000000"
 preserveAspectRatio="xMidYMid meet">
<metadata>
Created by potrace 1.11, written by Peter Selinger 2001-2013
</metadata>
<g transform="translate(0.000000,260.000000) scale(0.100000,-0.100000)"
fill="#000000" stroke="none">
<path d="M1028 2285 c-2 -2 -39 -6 -83 -10 -191 -16 -350 -72 -422 -147 -37
-39 -56 -80 -118 -253 -26 -71 -51 -139 -55 -150 -4 -11 -21 -56 -37 -100
l-28 -79 -60 -1 c-84 -2 -121 -23 -150 -88 -34 -79 -39 -114 -21 -142 15 -22
23 -25 82 -25 60 0 64 -1 55 -18 -6 -11 -13 -32 -16 -48 -4 -22 -8 -609 -5
-837 0 -26 7 -45 23 -61 22 -22 28 -23 220 -24 193 0 198 0 225 23 25 22 27
30 32 122 l5 98 612 0 613 0 1 -30 c1 -16 1 -54 0 -84 -1 -55 22 -120 43 -123
6 -1 102 -2 213 -3 199 -2 203 -1 224 21 21 22 21 27 21 446 -1 426 -2 440
-21 491 l-11 27 60 0 c105 0 121 43 65 168 -20 44 -31 56 -67 71 -26 11 -64
18 -95 17 l-52 -2 -36 106 c-20 58 -40 114 -45 125 -4 11 -17 45 -28 75 -58
157 -95 245 -113 269 -54 73 -228 137 -429 157 -49 5 -597 13 -602 9z m584
-199 c254 -33 298 -52 334 -139 12 -31 20 -57 17 -57 -3 0 -1 -6 4 -12 21 -27
113 -322 113 -363 0 -7 -6 -12 -12 -13 -7 0 -31 -5 -53 -11 -35 -8 -82 -17
-135 -26 -8 -1 -42 -5 -75 -10 -33 -4 -69 -9 -80 -11 -145 -29 -784 -22 -970
10 -16 3 -48 8 -70 12 -22 3 -44 7 -50 9 -5 1 -28 5 -50 9 -22 4 -54 12 -72
17 -30 10 -31 11 -22 47 14 54 31 115 37 132 7 19 6 17 21 70 7 25 31 91 54
148 36 94 44 105 81 126 37 21 84 36 171 51 17 3 71 8 120 11 50 3 92 8 94 9
5 5 498 -3 543 -9z m-1107 -928 c103 -36 263 -115 274 -136 6 -12 9 -31 7 -44
-3 -13 -5 -26 -5 -29 -3 -27 -204 -42 -341 -25 -127 15 -147 37 -144 154 2
113 54 132 209 80z m1748 3 c20 -19 28 -119 14 -173 -14 -52 -100 -72 -297
-69 -126 2 -121 1 -152 13 -30 11 -42 45 -29 81 13 33 128 91 336 167 33 12
108 1 128 -19z"/>
</g>
</svg>
